<svg width="104" height="104" viewBox="0 0 104 104" fill="none" xmlns="http://www.w3.org/2000/svg">
<path d="M60.9554 23.1477C60.4554 22.4987 59.9744 21.8337 59.4984 21.1637L56.6984 17.2287C56.4604 16.8957 56.2334 16.5497 55.9844 16.2287C55.9844 16.2287 53.7944 13.3687 51.7844 12.7877L48.0294 12.0276C47.8908 11.4308 47.9175 10.8075 48.1066 10.2247C48.2956 9.64184 48.6399 9.12154 49.1024 8.71967C49.1024 8.71967 51.8294 9.61367 51.1144 7.64767C51.1144 7.64767 51.6954 7.62467 51.3384 7.14767C51.3384 7.14767 51.1704 7.03666 51.4274 6.91266C51.4274 6.91266 51.8974 6.65568 51.4384 6.26468C51.4376 6.22149 51.4487 6.17891 51.4704 6.14154C51.4921 6.10418 51.5235 6.07345 51.5614 6.05267C51.5614 6.05267 52.3064 5.89265 52.3064 5.68365C52.0552 5.10243 51.7456 4.54826 51.3824 4.02966C51.3824 4.02966 51.8294 3.78366 51.8294 3.55966H51.4724C51.4973 3.13731 51.4886 2.71364 51.4464 2.29266C51.426 1.8721 51.3315 1.45844 51.1674 1.07068C51.0966 0.888495 50.9732 0.731427 50.8129 0.619446C50.6527 0.507464 50.4628 0.445584 50.2674 0.44165C50.2354 0.44165 50.2034 0.44165 50.1674 0.44165C50.1894 0.44165 50.2114 0.44165 50.2334 0.44165C50.0334 0.48065 49.8414 0.53566 49.6424 0.57666L47.0684 4.55267C47.0684 4.55867 47.0684 4.56567 47.0734 4.57367C47.1054 4.55667 47.1504 4.54765 47.1634 4.58365C47.1694 4.60338 47.1711 4.6242 47.1684 4.64465C47.1684 4.70565 47.1614 4.76667 47.1584 4.82767C47.1584 4.83267 47.1584 4.83767 47.1584 4.84167C47.1634 4.77767 47.8104 5.09165 47.8654 5.13165C48.038 5.26054 48.1765 5.42949 48.2692 5.6239C48.3618 5.81832 48.4058 6.03237 48.3972 6.24756C48.3886 6.46275 48.3278 6.67263 48.22 6.85907C48.1122 7.04551 47.9606 7.20289 47.7784 7.31766C47.8391 7.76996 47.814 8.22967 47.7044 8.67267C47.4604 9.65267 47.0834 10.6047 46.8134 11.5797C46.6427 12.0533 46.6109 12.5659 46.7218 13.057C46.8327 13.5482 47.0817 13.9973 47.4394 14.3517C47.4394 14.3517 50.9704 17.7047 49.0044 25.3517C48.6935 26.4943 48.7428 27.7051 49.1457 28.8187C49.5486 29.9323 50.2854 30.8944 51.2554 31.5737C52.4175 32.4594 53.2151 33.74 53.4974 35.1737C53.7884 36.707 53.7344 38.2858 53.3394 39.7957C53.3394 39.7957 51.3734 51.0597 51.0144 54.6357C51.0144 54.6357 49.8964 66.1677 53.8744 72.2467C53.8744 72.2467 50.1204 60.3567 53.8744 48.3327C53.8744 48.3327 55.9154 40.5547 55.8864 39.7507L55.9424 40.2757C55.9424 40.2757 57.2724 34.6107 58.0324 33.8947C58.8864 32.186 59.7407 30.4777 60.5954 28.7697C61.2149 27.822 61.6741 26.7787 61.9544 25.6817C61.9668 25.2138 61.8848 24.7483 61.7131 24.3129C61.5415 23.8775 61.2837 23.4812 60.9554 23.1477ZM56.9444 32.1607L55.8714 33.4117C55.731 32.4715 55.3294 31.5897 54.7124 30.8667C54.005 29.8936 53.2202 28.9792 52.3654 28.1327C51.8952 27.733 51.4924 27.2603 51.1724 26.7327C50.9941 26.3767 50.8929 25.9871 50.8757 25.5894C50.8584 25.1916 50.9255 24.7947 51.0724 24.4247C51.3156 23.7809 51.7133 23.2067 52.2304 22.7527C54.7924 20.7027 53.0104 18.6747 52.8474 18.4977C57.9314 23.8976 59.0704 25.9487 59.0704 25.9487L56.9444 32.1607Z" fill="#E84E46"/>
<path d="M90.5694 35.5687L90.4534 33.9067L90.4384 33.6987L90.4144 33.4917L90.3654 33.0787L90.2654 32.2507C89.3917 25.6105 86.7283 19.3331 82.5604 14.0907C82.2304 13.6477 81.8604 13.2377 81.5044 12.8157C81.3224 12.6077 81.1514 12.3917 80.9614 12.1927L80.3954 11.5927C80.2044 11.3927 80.0174 11.1927 79.8254 10.9927L79.2254 10.4197L78.6254 9.84867C78.4254 9.66167 78.2144 9.48366 78.0084 9.30066C74.7306 6.39797 70.9483 4.12068 66.8494 2.58167C64.8292 1.82846 62.7432 1.26534 60.6184 0.899663C58.5195 0.533666 56.3892 0.379227 54.2594 0.438664C56.3159 0.837622 58.3429 1.37588 60.3264 2.04969C62.2766 2.71817 64.1728 3.53488 65.9984 4.49268C69.5967 6.37744 72.8733 8.82076 75.7064 11.7317C75.8814 11.9117 76.0614 12.0867 76.2334 12.2697L76.7334 12.8297L77.2334 13.3877L77.7114 13.9677L78.1924 14.5447C78.3544 14.7347 78.4984 14.9447 78.6524 15.1377C78.9524 15.5377 79.2674 15.9257 79.5434 16.3437C80.695 17.9712 81.7162 19.6872 82.5974 21.4757C84.3381 25.0494 85.4976 28.8778 86.0324 32.8167L86.1234 33.5547L86.1684 33.9237L86.1914 34.1077L86.2054 34.2927L86.3174 35.7767L86.3644 37.2647C86.3774 37.5127 86.3644 37.7647 86.3644 38.0097L86.3574 38.7547V38.9407L86.3484 39.1267L86.3304 39.4987L86.2944 40.2417C86.2574 40.7367 86.2094 41.2307 86.1694 41.7257C86.1064 42.2177 86.0504 42.7117 85.9824 43.2037C85.8954 43.6927 85.8344 44.1867 85.7384 44.6747C85.3694 46.6331 84.8454 48.5592 84.1714 50.4347C84.0844 50.6687 84.0094 50.9077 83.9154 51.1347L83.6364 51.8347C83.4604 52.3037 83.2364 52.7517 83.0444 53.2137C82.9444 53.4457 82.8374 53.6697 82.7284 53.8957L82.4014 54.5727C82.1754 55.0197 81.9354 55.4597 81.7014 55.9047C79.7258 59.4548 77.212 62.6774 74.2494 65.4577C72.7472 66.8653 71.1409 68.1576 69.4444 69.3237C67.7133 70.5036 65.9026 71.5625 64.0254 72.4927C66.0925 71.9814 68.1027 71.2628 70.0254 70.3477C71.9744 69.4269 73.8344 68.3283 75.5814 67.0657C79.1158 64.4846 82.1581 61.2899 84.5634 57.6337C84.8544 57.1687 85.1524 56.7047 85.4344 56.2337L85.8454 55.5177C85.9824 55.2787 86.1214 55.0407 86.2454 54.7947L86.6274 54.0607C86.7574 53.8177 86.8734 53.5677 86.9884 53.3177L87.3394 52.5677C87.4574 52.3177 87.5564 52.0597 87.6674 51.8067C88.532 49.7673 89.2107 47.6541 89.6954 45.4927C90.1862 43.3272 90.4781 41.1213 90.5674 38.9027L90.5914 38.0707C90.5984 37.7937 90.6094 37.5157 90.6004 37.2387L90.5694 35.5687Z" fill="#5C56A0"/>
<path d="M50.1744 0.440769C48.0667 0.385824 45.9587 0.539901 43.8814 0.900761C41.7566 1.26628 39.6705 1.8294 37.6504 2.58277C33.5516 4.12204 29.7695 6.3993 26.4914 9.30176C26.2854 9.48476 26.0754 9.66177 25.8744 9.84977L25.2744 10.4208L24.6744 10.9938C24.4814 11.1938 24.2944 11.3938 24.1044 11.5938L23.5384 12.1938C23.3484 12.3938 23.1774 12.6098 22.9954 12.8168C22.6404 13.2378 22.2694 13.6488 21.9394 14.0918C17.7716 19.3343 15.1082 25.6117 14.2344 32.2518L14.1344 33.0798L14.0854 33.4928L14.0614 33.6998L14.0464 33.9078L13.9304 35.5698L13.8984 37.2338C13.8884 37.5108 13.8984 37.7888 13.9074 38.0658L13.9314 38.8978C14.0205 41.1164 14.3124 43.3223 14.8034 45.4878C15.289 47.6489 15.9678 49.762 16.8314 51.8018C16.9404 52.0548 17.0404 52.3128 17.1594 52.5628L17.5104 53.3128C17.6264 53.5628 17.7424 53.8128 17.8714 54.0558L18.2534 54.7898C18.3774 55.0358 18.5164 55.2738 18.6534 55.5128L19.0644 56.2288C19.3464 56.7008 19.6444 57.1638 19.9354 57.6288C22.3407 61.2851 25.383 64.4797 28.9174 67.0608C30.6645 68.3234 32.5244 69.4221 34.4734 70.3428C36.3964 71.2572 38.4065 71.9758 40.4734 72.4878C38.5964 71.5572 36.7858 70.4984 35.0544 69.3188C33.3531 68.1536 31.7421 66.8616 30.2354 65.4538C27.2728 62.6735 24.759 59.4509 22.7834 55.9008C22.5484 55.4558 22.3074 55.0158 22.0834 54.5688L21.7564 53.8918C21.6474 53.6668 21.5364 53.4418 21.4404 53.2098C21.2454 52.7478 21.0244 52.2998 20.8484 51.8308L20.5694 51.1308C20.4694 50.9008 20.3984 50.6608 20.3124 50.4308C19.6393 48.555 19.1154 46.629 18.7454 44.6708C18.6454 44.1828 18.5884 43.6888 18.5024 43.1998C18.4344 42.7088 18.3784 42.2138 18.3154 41.7218C18.2764 41.2218 18.2274 40.7328 18.1914 40.2378L18.1554 39.4948L18.1374 39.1228L18.1284 38.9368V38.7508L18.1204 38.0058C18.1204 37.7578 18.1084 37.5058 18.1204 37.2608L18.1674 35.7728L18.2784 34.2888L18.2924 34.1038L18.3154 33.9198L18.3604 33.5508L18.4514 32.8128C18.9862 28.8739 20.1457 25.0454 21.8864 21.4718C22.768 19.6835 23.7892 17.9676 24.9404 16.3398C25.2154 15.9218 25.5314 15.5348 25.8314 15.1338C25.9854 14.9338 26.1314 14.7338 26.2914 14.5408L26.7714 13.9638L27.2494 13.3838L27.7494 12.8258L28.2494 12.2658C28.4204 12.0818 28.6014 11.9078 28.7764 11.7278C31.6098 8.81681 34.8868 6.37346 38.4854 4.48877C40.311 3.53097 42.2072 2.71426 44.1574 2.04578C45.9508 1.44103 47.78 0.948073 49.6344 0.569767L49.7074 0.458775C49.8724 0.450775 50.0224 0.440769 50.1744 0.440769Z" fill="#E84E46"/>
<path d="M50.1744 0.440658C50.0234 0.440658 49.8744 0.450638 49.7224 0.463638L49.6494 0.57463C49.8494 0.53363 50.0414 0.474651 50.2404 0.439651C50.2174 0.437651 50.1994 0.440658 50.1744 0.440658Z" fill="#E84E46"/>
<path d="M47.0114 4.8096C46.7247 4.81252 46.4455 4.90162 46.2101 5.06534C45.9746 5.22905 45.7939 5.45981 45.6914 5.7276C45.6319 5.88595 45.6004 6.05345 45.5984 6.22259C45.6041 6.45528 45.6675 6.68291 45.7829 6.88504C45.8983 7.08717 46.0621 7.25747 46.2596 7.38061C46.4571 7.50376 46.6822 7.57591 46.9145 7.59057C47.1468 7.60524 47.3791 7.56196 47.5905 7.46463C47.8019 7.3673 47.9858 7.21896 48.1258 7.03296C48.2657 6.84695 48.3572 6.62911 48.3921 6.39899C48.427 6.16886 48.4041 5.93366 48.3257 5.71454C48.2472 5.49541 48.1155 5.29924 47.9424 5.14361C47.8488 5.06151 47.7433 4.99407 47.6294 4.9436C47.4358 4.85401 47.2247 4.80826 47.0114 4.8096ZM46.6194 7.48059C46.569 7.47694 46.5199 7.46264 46.4754 7.4386L46.4074 7.40759C46.3609 7.38943 46.318 7.36338 46.2804 7.3306C46.2617 7.31414 46.2474 7.29328 46.2388 7.26987C46.2302 7.24645 46.2277 7.22124 46.2314 7.19659C46.2484 7.11759 46.3624 7.21261 46.4124 7.22061L46.5434 7.24261C46.5901 7.24718 46.6353 7.26112 46.6764 7.2836C46.6966 7.2956 46.7128 7.3133 46.7229 7.33447C46.7331 7.35565 46.7367 7.37937 46.7334 7.40262C46.7254 7.42621 46.71 7.44656 46.6894 7.46063C46.6689 7.4747 46.6443 7.48169 46.6194 7.48059ZM47.6644 6.81561C47.5278 6.93022 47.3631 7.00623 47.1873 7.03576C47.0115 7.0653 46.8309 7.04729 46.6644 6.98361C46.4872 6.91571 46.3312 6.80194 46.2124 6.65396C46.0936 6.50597 46.0162 6.32908 45.9883 6.14139C45.9603 5.95369 45.9827 5.76192 46.0532 5.58572C46.1237 5.40952 46.2397 5.25523 46.3894 5.13861C46.4188 5.11793 46.4495 5.09923 46.4814 5.08261C46.6224 5.01375 46.7766 4.97586 46.9334 4.97149C47.0903 4.96713 47.2463 4.99637 47.391 5.05728C47.5356 5.11819 47.6655 5.20934 47.772 5.32461C47.8785 5.43989 47.9591 5.57662 48.0084 5.72561C48.0694 5.92058 48.0692 6.12956 48.0079 6.32443C47.9466 6.5193 47.8261 6.69071 47.6644 6.81561Z" fill="#5C56A0"/>
<path d="M47.1594 4.86365C47.1621 4.85521 47.1638 4.84648 47.1644 4.83765C47.1601 4.83815 47.1557 4.83815 47.1514 4.83765C47.1534 4.84565 47.1564 4.85365 47.1594 4.86365Z" fill="#837BB7"/>
<path d="M47.2494 4.54761H47.0764V4.93861H47.2494V4.54761Z" fill="#5C56A0"/>
<path d="M22.0691 98.3555C21.8699 98.3512 21.6718 98.3874 21.487 98.462C21.3022 98.5366 21.1345 98.648 20.9942 98.7895C20.8509 98.9274 20.7379 99.0936 20.6621 99.2774C20.5864 99.4613 20.5496 99.6587 20.5542 99.8575C20.5473 100.054 20.5825 100.25 20.6573 100.432C20.7321 100.614 20.8449 100.778 20.9881 100.913C21.2854 101.177 21.6696 101.322 22.0673 101.321C22.465 101.32 22.8483 101.172 23.1442 100.907C23.2878 100.773 23.4014 100.61 23.4772 100.43C23.5531 100.249 23.5896 100.054 23.5842 99.8575C23.5899 99.6581 23.5543 99.4596 23.4796 99.2746C23.4049 99.0896 23.2928 98.9221 23.1502 98.7825C23.0082 98.6421 22.8391 98.5318 22.6533 98.4584C22.4675 98.3851 22.2688 98.35 22.0691 98.3555Z" fill="#5C56A0"/>
<path d="M25.5661 98.3556C25.3668 98.3514 25.1686 98.3877 24.9837 98.4623C24.7987 98.5369 24.6308 98.6482 24.4902 98.7895C24.3471 98.9276 24.2342 99.0938 24.1585 99.2776C24.0827 99.4614 24.0459 99.6588 24.0502 99.8575C24.0433 100.054 24.0785 100.25 24.1533 100.432C24.2281 100.614 24.3409 100.778 24.4841 100.913C24.7814 101.177 25.1656 101.322 25.5633 101.321C25.961 101.32 26.3443 101.172 26.6402 100.907C26.7838 100.773 26.8974 100.61 26.9733 100.43C27.0492 100.249 27.0856 100.054 27.0802 99.8575C27.0859 99.6581 27.0503 99.4596 26.9756 99.2746C26.9009 99.0896 26.7887 98.9221 26.6461 98.7826C26.5044 98.642 26.3356 98.5317 26.1499 98.4583C25.9643 98.3849 25.7657 98.35 25.5661 98.3556Z" fill="#5C56A0"/>
<path d="M33.5752 98.3555C33.3759 98.3512 33.1778 98.3874 32.993 98.462C32.8082 98.5366 32.6405 98.648 32.5002 98.7895C32.3569 98.9274 32.2439 99.0936 32.1681 99.2774C32.0924 99.4613 32.0556 99.6587 32.0602 99.8575C32.0533 100.054 32.0885 100.25 32.1633 100.432C32.2382 100.614 32.3509 100.778 32.4941 100.913C32.7914 101.177 33.1756 101.322 33.5733 101.321C33.971 101.32 34.3543 101.172 34.6501 100.907C34.7938 100.773 34.9074 100.61 34.9833 100.43C35.0591 100.249 35.0956 100.054 35.0901 99.8575C35.0959 99.6581 35.0603 99.4596 34.9856 99.2746C34.9109 99.0896 34.7988 98.9221 34.6562 98.7825C34.5142 98.6421 34.3451 98.5318 34.1593 98.4584C33.9736 98.3851 33.7749 98.35 33.5752 98.3555Z" fill="#5C56A0"/>
<path d="M37.6892 89.5098C37.5971 88.9435 37.3569 88.4115 36.993 87.9679C36.6292 87.5243 36.1545 87.1848 35.6172 86.9838C34.8069 86.7143 33.958 86.5791 33.1042 86.5837C32.2464 86.5911 31.3931 86.7084 30.5652 86.9327C30.2542 87.0197 29.9862 87.1058 29.7652 87.1918L31.5792 89.3157L31.7222 89.2637C31.7155 88.7878 31.8221 88.3173 32.0332 87.8907C32.1377 87.6756 32.3021 87.495 32.5066 87.3708C32.7111 87.2467 32.947 87.1841 33.1862 87.1907C33.4293 87.2081 33.6659 87.2771 33.8802 87.3932C34.0946 87.5092 34.2817 87.6697 34.4292 87.8638C34.9392 88.4338 35.3365 89.9707 35.6212 92.4747C35.7362 93.8234 36.2654 95.1035 37.1362 96.1398H27.1502V90.7257C27.1502 89.2844 27.1979 87.894 27.2932 86.5547C26.0255 86.9435 24.7252 87.2167 23.4082 87.3707V87.5397C23.6552 87.5268 23.8998 87.5943 24.1053 87.7321C24.3108 87.8698 24.4662 88.0703 24.5482 88.3037C24.6606 88.8004 24.704 89.3102 24.6772 89.8187V96.1398H16.8982C17.6556 95.199 18.0508 94.0178 18.0122 92.8107C18.0417 92.0923 17.9145 91.3761 17.6394 90.7118C17.3643 90.0475 16.9479 89.451 16.4192 88.9637C15.328 88.0037 13.9082 87.5021 12.4562 87.5637C10.9719 87.5036 9.52258 88.0236 8.41516 89.0137C8.09223 89.309 7.8092 89.6452 7.57318 90.0137C6.69134 89.9876 5.81318 90.138 4.99027 90.4561C4.16736 90.7741 3.41627 91.2534 2.78116 91.8657C2.14152 92.4721 1.63678 93.2064 1.29978 94.0209C0.962766 94.8353 0.801044 95.7117 0.825166 96.5928C0.825166 98.7428 1.92184 101.031 4.11517 103.457L4.84018 103.574C4.12793 101.365 3.69127 99.0773 3.54016 96.7617C3.54016 93.0051 4.74884 91.0277 7.16617 90.8297C6.95502 91.4331 6.8498 92.0685 6.85517 92.7078C6.82464 93.4306 6.9473 94.1517 7.21512 94.8239C7.48294 95.496 7.88987 96.1039 8.40918 96.6077C9.49017 97.5985 10.9201 98.1201 12.3852 98.0577C13.541 98.0927 14.6826 97.796 15.6752 97.2028H38.3412C38.6595 97.4142 38.9938 97.6004 39.3412 97.7598L39.7552 97.5267C38.886 96.3644 38.357 94.9833 38.2272 93.5377C38.0498 92.1991 37.8705 90.8564 37.6892 89.5098ZM15.1002 96.0377C14.887 96.544 14.5251 96.9736 14.0625 97.2697C13.5998 97.5657 13.0581 97.7142 12.5092 97.6957C11.9525 97.7196 11.4018 97.5739 10.9298 97.2778C10.4578 96.9818 10.0869 96.5493 9.86618 96.0377C9.3955 95.0161 9.17343 93.8976 9.21817 92.7737C9.17853 91.667 9.40055 90.5666 9.86618 89.5618C10.0814 89.0607 10.4422 88.6358 10.902 88.3424C11.3617 88.0491 11.8991 87.9008 12.4442 87.9167C12.9974 87.8935 13.5449 88.0365 14.016 88.3274C14.4871 88.6183 14.8602 89.0437 15.0872 89.5487C15.5595 90.5605 15.7814 91.6711 15.7342 92.7867C15.7757 93.9046 15.558 95.017 15.0982 96.0367L15.1002 96.0377Z" fill="#5C56A0"/>
<path d="M48.2062 88.0455C46.7515 87.992 45.3218 88.435 44.1522 89.3015C43.5713 89.7271 43.1034 90.2885 42.7897 90.9367C42.4759 91.5848 42.3257 92.2999 42.3522 93.0195C42.3429 93.6522 42.4951 94.2767 42.7943 94.8341C43.0935 95.3916 43.5299 95.8636 44.0622 96.2056C45.1099 96.9336 46.3617 97.31 47.6372 97.2805C48.591 97.3586 49.5441 97.1225 50.3511 96.608C51.158 96.0936 51.7745 95.3292 52.1062 94.4315V94.6255C52.1062 99.2802 50.6338 101.607 47.6891 101.607C45.6338 101.607 44.3432 100.402 43.8172 97.9926H43.6612L42.7671 100.738C44.2414 101.59 45.9084 102.054 47.6112 102.085C48.5686 102.132 49.5252 101.976 50.4183 101.628C51.3113 101.28 52.1206 100.747 52.7931 100.064C54.0836 98.6253 54.7539 96.7355 54.6582 94.8056C54.7479 93.0216 54.1445 91.2719 52.9742 89.9225C52.3602 89.2864 51.6168 88.7897 50.7942 88.4658C49.9716 88.142 49.089 87.9987 48.2062 88.0455ZM50.9521 95.4675C50.6549 95.8677 50.2651 96.1899 49.8162 96.4065C49.3672 96.6231 48.8724 96.7278 48.3742 96.7116C47.8865 96.7318 47.4007 96.6381 46.9555 96.438C46.5103 96.2379 46.1178 95.9368 45.8092 95.5586C45.2249 94.7703 44.9278 93.806 44.9672 92.8256C44.9121 91.7679 45.1834 90.7189 45.7442 89.8206C46.044 89.391 46.4493 89.0458 46.9211 88.8181C47.3929 88.5905 47.9153 88.488 48.4382 88.5205C48.9381 88.4988 49.4354 88.6039 49.8838 88.8259C50.3323 89.048 50.7174 89.3798 51.0032 89.7905C51.5652 90.6362 51.8452 91.6381 51.8032 92.6526C51.8393 93.6595 51.5406 94.6497 50.9521 95.4675Z" fill="#5C56A0"/>
<path d="M71.2882 85.1694C71.6874 85.1786 72.0741 85.0299 72.3642 84.7555C72.508 84.6219 72.6217 84.459 72.6976 84.278C72.7735 84.0969 72.8098 83.9017 72.8042 83.7055C72.8099 83.506 72.7743 83.3076 72.6996 83.1226C72.6249 82.9376 72.5127 82.77 72.3701 82.6305C72.0786 82.3547 71.6923 82.2015 71.291 82.2026C70.8897 82.2038 70.5041 82.3591 70.2141 82.6365C70.0711 82.7745 69.9582 82.9407 69.8825 83.1245C69.8067 83.3083 69.7698 83.5057 69.7741 83.7045C69.7673 83.9011 69.8025 84.0969 69.8773 84.2788C69.9522 84.4607 70.0649 84.6247 70.2081 84.7595C70.3523 84.8956 70.5219 85.0019 70.7072 85.0723C70.8926 85.1426 71.09 85.1756 71.2882 85.1694Z" fill="#5C56A0"/>
<path d="M67.4661 85.1694C67.8651 85.1789 68.2516 85.0301 68.5412 84.7555C68.685 84.6219 68.7987 84.459 68.8746 84.278C68.9505 84.0969 68.9868 83.9017 68.9812 83.7055C68.9869 83.506 68.9513 83.3076 68.8766 83.1226C68.8019 82.9376 68.6897 82.77 68.5471 82.6305C68.2556 82.3547 67.8693 82.2015 67.468 82.2026C67.0667 82.2038 66.6812 82.3591 66.3912 82.6365C66.2482 82.7745 66.1352 82.9407 66.0595 83.1245C65.9837 83.3083 65.9469 83.5057 65.9512 83.7045C65.9443 83.9011 65.9795 84.0969 66.0543 84.2788C66.1292 84.4607 66.2419 84.6247 66.3851 84.7595C66.5296 84.8955 66.6994 85.0017 66.8848 85.072C67.0703 85.1424 67.2679 85.1755 67.4661 85.1694Z" fill="#5C56A0"/>
<path d="M93.8121 87.9937C92.9575 87.9937 92.1978 87.9719 91.5331 87.9286V88.0977C92.3878 88.3737 92.8152 89.3233 92.8152 90.9467V91.9056C92.8582 92.8114 92.8016 93.7193 92.6462 94.6127C92.5162 95.0324 92.2598 95.4017 91.912 95.6702C91.5643 95.9386 91.1421 96.0932 90.7032 96.1127C90.5568 96.1295 90.4095 96.1382 90.2621 96.1387C88.8295 96.1473 87.9788 95.1499 87.7101 93.1466C87.7448 92.7753 87.7621 92.3753 87.7621 91.9467V91.1466C87.7383 90.545 87.7996 89.9431 87.9442 89.3586C88.0015 89.0674 88.1364 88.7969 88.3345 88.5758C88.5327 88.3548 88.7869 88.1914 89.0702 88.1027L89.0572 87.9336C88.4525 87.9769 87.6711 87.9987 86.7131 87.9987C85.8465 87.9987 85.0825 87.9769 84.4211 87.9336V88.1027C85.2758 88.3787 85.7032 89.3283 85.7032 90.9517V91.9106C85.7461 92.8164 85.6895 93.7243 85.5342 94.6177C85.4058 95.0358 85.1515 95.4042 84.8062 95.6726C84.4608 95.941 84.0411 96.0964 83.6042 96.1177C83.4494 96.1345 83.2939 96.1432 83.1382 96.1437C82.719 96.1536 82.3059 96.0412 81.9495 95.8203C81.5931 95.5994 81.3088 95.2795 81.1312 94.8997C80.7482 94.1451 80.5484 93.3108 80.5482 92.4646V91.1447C80.5242 90.5431 80.5855 89.941 80.7302 89.3566C80.7878 89.0652 80.9229 88.7949 81.1212 88.5739C81.3195 88.3528 81.5738 88.1893 81.8572 88.1006L81.8442 87.9316C81.2395 87.975 80.4538 87.9966 79.4872 87.9966C78.6325 87.9966 77.8729 87.975 77.2082 87.9316V88.1006C78.0629 88.3766 78.4902 89.3263 78.4902 90.9496V91.9086C78.5316 92.8187 78.4749 93.7307 78.3212 94.6287C78.1879 95.0477 77.931 95.4165 77.5842 95.6869C77.2375 95.9573 76.817 96.1166 76.3782 96.1437H73.6692V90.7296C73.6692 89.2883 73.7122 87.8979 73.7982 86.5586C72.5305 86.9474 71.2301 87.2206 69.9131 87.3746V87.5436C70.1602 87.5305 70.4049 87.598 70.6104 87.7357C70.816 87.8735 70.9713 88.0741 71.0532 88.3076C71.1662 88.8042 71.2099 89.3141 71.1832 89.8226V96.1437H63.7612C63.6745 92.5257 63.6788 90.0299 63.7742 88.6566C62.6906 89.0671 61.5586 89.336 60.4062 89.4567V89.6256C60.643 89.6141 60.8771 89.6799 61.0734 89.813C61.2696 89.9461 61.4173 90.1393 61.4941 90.3636C61.597 90.8441 61.6363 91.336 61.6111 91.8267V96.4767C61.5851 99.4734 60.9978 100.971 59.8492 100.971C59.0032 100.971 58.3898 100.017 58.0092 98.1086H57.8531L57.2441 100.388C57.5523 100.755 57.9338 101.055 58.3643 101.267C58.7947 101.479 59.2647 101.599 59.7441 101.619C60.3529 101.624 60.9534 101.477 61.4915 101.192C62.0295 100.907 62.4882 100.493 62.8262 99.9866C63.4496 99.1923 63.7874 98.2114 63.7852 97.2017H76.4261C77.0056 97.2576 77.5901 97.1764 78.1324 96.9648C78.6747 96.7533 79.1597 96.4172 79.5482 95.9836C79.9229 95.479 80.1835 94.8989 80.3121 94.2836C80.8135 96.2089 81.9232 97.2019 83.6412 97.2626C84.2272 97.3278 84.8201 97.2447 85.3655 97.0206C85.9109 96.7966 86.3912 96.4389 86.7621 95.9806C87.1085 95.5182 87.3553 94.9891 87.4872 94.4266C88.0132 96.258 89.1012 97.2037 90.7512 97.2637C91.3372 97.327 91.9297 97.2429 92.4749 97.019C93.0201 96.7952 93.5008 96.4385 93.8732 95.9816C94.6341 94.7779 94.9849 93.3603 94.8732 91.9407V91.1406C94.851 90.5398 94.9078 89.9387 95.0422 89.3527C95.1039 89.0611 95.242 88.7911 95.4423 88.5704C95.6426 88.3497 95.8979 88.1863 96.1822 88.0967L96.1692 87.9276C95.5642 87.9726 94.7781 87.9937 93.8121 87.9937Z" fill="#5C56A0"/>
<path d="M102.374 95.3105C102.348 95.0779 102.3 94.2663 102.231 92.8756V82.9406C102.222 81.3952 102.256 80.0137 102.331 78.7957C101.248 79.2062 100.116 79.475 98.9632 79.5956V79.7646C99.2018 79.7515 99.4382 79.8163 99.6367 79.9495C99.8351 80.0826 99.9849 80.2768 100.063 80.5026C100.166 80.983 100.205 81.4749 100.18 81.9656V92.9496C100.204 93.7507 100.173 94.5526 100.089 95.3496C100.07 95.7401 99.9338 96.1157 99.6982 96.4276C99.4626 96.7396 99.1385 96.9734 98.7681 97.0986L98.7812 97.2676C99.4545 97.2242 100.292 97.2026 101.294 97.2026C102.063 97.2026 102.857 97.2242 103.677 97.2676V97.0986C102.963 96.9106 102.529 96.3145 102.374 95.3105Z" fill="#5C56A0"/>
</svg>
