<svg width="106" height="24" viewBox="0 0 106 24" fill="none" xmlns="http://www.w3.org/2000/svg">
<path fill-rule="evenodd" clip-rule="evenodd" d="M11.9428 1.75H12.0572C14.2479 1.74999 15.9686 1.74998 17.312 1.93059C18.6886 2.11568 19.7809 2.50271 20.6391 3.36091C21.4973 4.21911 21.8843 5.31137 22.0694 6.68802C22.25 8.03144 22.25 9.75214 22.25 11.9428V12.0572C22.25 14.2479 22.25 15.9686 22.0694 17.312C21.8843 18.6886 21.4973 19.7809 20.6391 20.6391C19.7809 21.4973 18.6886 21.8843 17.312 22.0694C15.9686 22.25 14.2479 22.25 12.0572 22.25H11.9428C9.7521 22.25 8.03144 22.25 6.68802 22.0694C5.31137 21.8843 4.21911 21.4973 3.36091 20.6391C2.50272 19.7809 2.11568 18.6886 1.93059 17.312C1.74998 15.9686 1.74999 14.2479 1.75 12.0572V11.9428C1.74999 9.75211 1.74998 8.03144 1.93059 6.68802C2.11568 5.31137 2.50272 4.21911 3.36091 3.36091C4.21911 2.50271 5.31137 2.11568 6.68802 1.93059C8.03143 1.74998 9.75214 1.74999 11.9428 1.75ZM8.00195 10.5C8.00195 9.94771 7.55424 9.5 7.00195 9.5C6.44967 9.5 6.00195 9.94771 6.00195 10.5V17C6.00195 17.5523 6.44967 18 7.00195 18C7.55424 18 8.00195 17.5523 8.00195 17V10.5ZM11.002 9C11.4073 9 11.7564 9.2412 11.9134 9.58791C12.5213 9.215 13.2365 9 14.002 9C16.2111 9 18.002 10.7909 18.002 13V17C18.002 17.5523 17.5542 18 17.002 18C16.4497 18 16.002 17.5523 16.002 17V13C16.002 11.8954 15.1065 11 14.002 11C12.8974 11 12.002 11.8954 12.002 13V17C12.002 17.5523 11.5542 18 11.002 18C10.4497 18 10.002 17.5523 10.002 17V10C10.002 9.44771 10.4497 9 11.002 9ZM8.25977 7C8.25977 7.69036 7.70012 8.25 7.00977 8.25H7.00078C6.31043 8.25 5.75078 7.69036 5.75078 7C5.75078 6.30964 6.31043 5.75 7.00078 5.75H7.00977C7.70012 5.75 8.25977 6.30964 8.25977 7Z" fill="#242424"/>
<path d="M45.3164 16.251V18H38.8916V16.251H45.3164ZM39.5068 5.20312V18H37.3008V5.20312H39.5068ZM49.2881 8.49023V18H47.1612V8.49023H49.2881ZM47.0205 5.99414C47.0205 5.67187 47.126 5.40527 47.337 5.19434C47.5538 4.97754 47.8526 4.86914 48.2334 4.86914C48.6084 4.86914 48.9043 4.97754 49.1211 5.19434C49.3379 5.40527 49.4463 5.67187 49.4463 5.99414C49.4463 6.31055 49.3379 6.57422 49.1211 6.78516C48.9043 6.99609 48.6084 7.10156 48.2334 7.10156C47.8526 7.10156 47.5538 6.99609 47.337 6.78516C47.126 6.57422 47.0205 6.31055 47.0205 5.99414ZM53.919 10.5205V18H51.8009V8.49023H53.796L53.919 10.5205ZM53.5411 12.8936L52.8555 12.8848C52.8614 12.2109 52.9552 11.5928 53.1368 11.0303C53.3243 10.4678 53.5821 9.98438 53.9102 9.58008C54.2442 9.17578 54.6427 8.86523 55.1055 8.64844C55.5684 8.42578 56.0841 8.31445 56.6524 8.31445C57.1095 8.31445 57.5225 8.37891 57.8917 8.50781C58.2667 8.63086 58.586 8.83301 58.8497 9.11426C59.1192 9.39551 59.3243 9.76172 59.4649 10.2129C59.6055 10.6582 59.6759 11.2061 59.6759 11.8564V18H57.5489V11.8477C57.5489 11.3906 57.4815 11.0303 57.3468 10.7666C57.2179 10.4971 57.0274 10.3066 56.7755 10.1953C56.5294 10.0781 56.2218 10.0195 55.8526 10.0195C55.4893 10.0195 55.1641 10.0957 54.877 10.248C54.5899 10.4004 54.3468 10.6084 54.1475 10.8721C53.9542 11.1357 53.8048 11.4404 53.6993 11.7861C53.5938 12.1318 53.5411 12.501 53.5411 12.8936ZM64.1837 4.5V18H62.0568V4.5H64.1837ZM70.09 8.49023L65.9503 13.0781L63.6827 15.3984L63.129 13.6055L64.8429 11.4873L67.5323 8.49023H70.09ZM67.9894 18L64.9044 13.5352L66.2404 12.0498L70.4415 18H67.9894ZM75.6613 18.1758C74.9582 18.1758 74.3224 18.0615 73.7541 17.833C73.1916 17.5986 72.7111 17.2734 72.3127 16.8574C71.9201 16.4414 71.6183 15.9521 71.4074 15.3896C71.1964 14.8271 71.091 14.2207 71.091 13.5703V13.2188C71.091 12.4746 71.1994 11.8008 71.4162 11.1973C71.633 10.5938 71.9347 10.0781 72.3214 9.65039C72.7082 9.2168 73.1652 8.88574 73.6925 8.65723C74.2199 8.42871 74.7912 8.31445 75.4064 8.31445C76.0861 8.31445 76.6808 8.42871 77.1906 8.65723C77.7004 8.88574 78.1222 9.20801 78.4562 9.62402C78.7961 10.0342 79.048 10.5234 79.2121 11.0918C79.382 11.6602 79.467 12.2871 79.467 12.9727V13.8779H72.1193V12.3574H77.3752V12.1904C77.3634 11.8096 77.2873 11.4521 77.1466 11.1182C77.0119 10.7842 76.8039 10.5146 76.5226 10.3096C76.2414 10.1045 75.8664 10.002 75.3976 10.002C75.0461 10.002 74.7326 10.0781 74.4572 10.2305C74.1877 10.377 73.9621 10.5908 73.7804 10.8721C73.5988 11.1533 73.4582 11.4932 73.3586 11.8916C73.2648 12.2842 73.2179 12.7266 73.2179 13.2188V13.5703C73.2179 13.9863 73.2736 14.373 73.3849 14.7305C73.5021 15.082 73.672 15.3896 73.8947 15.6533C74.1173 15.917 74.3869 16.125 74.7033 16.2773C75.0197 16.4238 75.38 16.4971 75.7843 16.4971C76.2941 16.4971 76.7482 16.3945 77.1466 16.1895C77.5451 15.9844 77.8908 15.6943 78.1838 15.3193L79.3 16.4004C79.0949 16.6992 78.8283 16.9863 78.5002 17.2617C78.172 17.5312 77.7707 17.751 77.2961 17.9209C76.8273 18.0908 76.2824 18.1758 75.6613 18.1758ZM87.1301 16.0312V4.5H89.257V18H87.3322L87.1301 16.0312ZM80.9426 13.3506V13.166C80.9426 12.4453 81.0275 11.7891 81.1975 11.1973C81.3674 10.5996 81.6135 10.0869 81.9357 9.65918C82.258 9.22559 82.6506 8.89453 83.1135 8.66602C83.5764 8.43164 84.0979 8.31445 84.6779 8.31445C85.2521 8.31445 85.7561 8.42578 86.1896 8.64844C86.6232 8.87109 86.9924 9.19043 87.2971 9.60645C87.6018 10.0166 87.8449 10.5088 88.0266 11.083C88.2082 11.6514 88.3371 12.2842 88.4133 12.9814V13.5703C88.3371 14.25 88.2082 14.8711 88.0266 15.4336C87.8449 15.9961 87.6018 16.4824 87.2971 16.8926C86.9924 17.3027 86.6203 17.6191 86.1809 17.8418C85.7473 18.0645 85.2404 18.1758 84.6604 18.1758C84.0861 18.1758 83.5676 18.0557 83.1047 17.8154C82.6477 17.5752 82.258 17.2383 81.9357 16.8047C81.6135 16.3711 81.3674 15.8613 81.1975 15.2754C81.0275 14.6836 80.9426 14.042 80.9426 13.3506ZM83.0607 13.166V13.3506C83.0607 13.7842 83.0988 14.1885 83.175 14.5635C83.257 14.9385 83.383 15.2695 83.5529 15.5566C83.7229 15.8379 83.9426 16.0605 84.2121 16.2246C84.4875 16.3828 84.8156 16.4619 85.1965 16.4619C85.677 16.4619 86.0725 16.3564 86.383 16.1455C86.6936 15.9346 86.9367 15.6504 87.1125 15.293C87.2941 14.9297 87.4172 14.5254 87.4816 14.0801V12.4893C87.4465 12.1436 87.3732 11.8213 87.2619 11.5225C87.1564 11.2236 87.0129 10.9629 86.8312 10.7402C86.6496 10.5117 86.424 10.3359 86.1545 10.2129C85.8908 10.084 85.5773 10.0195 85.2141 10.0195C84.8273 10.0195 84.4992 10.1016 84.2297 10.2656C83.9602 10.4297 83.7375 10.6553 83.5617 10.9424C83.3918 11.2295 83.2658 11.5635 83.1838 11.9443C83.1018 12.3252 83.0607 12.7324 83.0607 13.166ZM94.2483 5.20312V18H92.0422V5.20312H94.2483ZM99.0901 10.5205V18H96.972V8.49023H98.9671L99.0901 10.5205ZM98.7122 12.8936L98.0266 12.8848C98.0325 12.2109 98.1263 11.5928 98.3079 11.0303C98.4954 10.4678 98.7532 9.98438 99.0813 9.58008C99.4153 9.17578 99.8138 8.86523 100.277 8.64844C100.74 8.42578 101.255 8.31445 101.824 8.31445C102.281 8.31445 102.694 8.37891 103.063 8.50781C103.438 8.63086 103.757 8.83301 104.021 9.11426C104.29 9.39551 104.495 9.76172 104.636 10.2129C104.777 10.6582 104.847 11.2061 104.847 11.8564V18H102.72V11.8477C102.72 11.3906 102.653 11.0303 102.518 10.7666C102.389 10.4971 102.199 10.3066 101.947 10.1953C101.7 10.0781 101.393 10.0195 101.024 10.0195C100.66 10.0195 100.335 10.0957 100.048 10.248C99.761 10.4004 99.5179 10.6084 99.3186 10.8721C99.1253 11.1357 98.9759 11.4404 98.8704 11.7861C98.7649 12.1318 98.7122 12.501 98.7122 12.8936Z" fill="#242424"/>
</svg>
