<svg width="506" height="324" viewBox="0 0 506 324" fill="none" xmlns="http://www.w3.org/2000/svg">
<rect width="505.5" height="324" rx="16" fill="#C4C4C4"/>
<rect x="216.75" y="126" width="72" height="72" rx="36" fill="white"/>
<path d="M261.139 161.36L247.641 153.111C247.527 153.042 247.397 153.004 247.264 153.001C247.131 152.999 246.999 153.032 246.883 153.097C246.767 153.162 246.67 153.257 246.603 153.372C246.535 153.487 246.5 153.618 246.5 153.751V170.249C246.5 170.382 246.535 170.513 246.603 170.628C246.67 170.743 246.767 170.838 246.883 170.903C246.999 170.968 247.131 171.001 247.264 170.999C247.397 170.996 247.527 170.958 247.641 170.889L261.139 162.64C261.249 162.573 261.339 162.479 261.402 162.367C261.465 162.255 261.498 162.128 261.498 162C261.498 161.871 261.465 161.745 261.402 161.633C261.339 161.521 261.249 161.427 261.139 161.36Z" fill="#5C56A0"/>
</svg>
